<svg aria-hidden="true" style="position:absolute;width:0;height:0" xmlns="http://www.w3.org/2000/svg" overflow="hidden"><defs><symbol id="icon-facebook-desktop" viewBox="0 0 19 32"><path d="M16.649.007L12.499 0C7.837 0 4.824 3.091 4.824 7.875v3.631H.652a.652.652 0 00-.652.653v5.261c0 .361.292.653.652.653h4.172v13.275c0 .361.292.652.652.652h5.444a.651.651 0 00.652-.652V18.073h4.878a.652.652 0 00.652-.653l.002-5.261a.652.652 0 00-.653-.652h-4.88V8.429c0-1.479.353-2.23 2.28-2.23l2.795-.001c.36 0 .652-.292.652-.652V.661a.652.652 0 00-.652-.652z"/></symbol><symbol id="icon-facebook-tablet_mobile" viewBox="0 0 21 32"><path d="M18.558.007L14.408 0C9.746 0 6.733 3.091 6.733 7.875v3.631H2.561a.652.652 0 00-.652.653v5.261c0 .361.292.652.652.652h4.172v13.275c0 .361.292.653.652.653h5.444a.652.652 0 00.652-.653V18.072h4.878a.651.651 0 00.652-.652l.002-5.261a.652.652 0 00-.653-.652h-4.88V8.429c0-1.479.353-2.231 2.28-2.231l2.795-.001c.36 0 .652-.292.652-.652V.66a.652.652 0 00-.651-.652z"/></symbol><symbol id="icon-instagram-desktop" viewBox="0 0 32 32"><path d="M16.316 32h-.319c-2.508.006-4.826-.058-7.08-.195-2.066-.126-3.953-.84-5.455-2.065-1.45-1.182-2.44-2.781-2.942-4.75-.438-1.715-.461-3.398-.483-5.026a343.853 343.853 0 01-.036-3.96c.003-1.414.02-2.798.036-3.966.022-1.628.045-3.311.483-5.026.503-1.97 1.493-3.568 2.942-4.75C4.965 1.037 6.851.323 8.918.197 11.172.06 13.49-.004 16.004.002c2.509-.005 4.826.058 7.08.195 2.067.126 3.953.84 5.455 2.065 1.45 1.182 2.44 2.78 2.942 4.75.438 1.715.461 3.398.483 5.026.016 1.168.033 2.553.036 3.96v.006c-.003 1.408-.02 2.792-.036 3.96-.022 1.628-.045 3.311-.483 5.026-.503 1.97-1.493 3.568-2.942 4.75-1.502 1.225-3.389 1.939-5.455 2.065-2.158.131-4.376.195-6.768.195zm-.319-2.501c2.468.006 4.733-.056 6.934-.19 1.562-.095 2.917-.602 4.027-1.507 1.026-.837 1.733-1.991 2.1-3.431.364-1.428.385-2.96.406-4.442.016-1.16.032-2.535.036-3.929-.004-1.394-.02-2.769-.036-3.929-.02-1.482-.041-3.015-.406-4.443-.367-1.44-1.074-2.594-2.1-3.431-1.11-.905-2.465-1.412-4.027-1.507a108.819 108.819 0 00-6.929-.19c-2.467-.006-4.733.056-6.934.19-1.563.095-2.917.602-4.027 1.507-1.026.837-1.732 1.991-2.1 3.431-.364 1.428-.385 2.96-.406 4.443a363.726 363.726 0 00-.036 3.932c.003 1.389.02 2.765.036 3.926.02 1.482.041 3.015.406 4.442.367 1.44 1.074 2.594 2.1 3.431 1.11.905 2.465 1.412 4.027 1.507 2.201.134 4.467.197 6.928.19zm-.06-5.686c-4.308 0-7.813-3.505-7.813-7.813s3.505-7.813 7.813-7.813S23.75 11.692 23.75 16s-3.505 7.813-7.813 7.813zm0-13.126c-2.929 0-5.313 2.383-5.313 5.313s2.383 5.313 5.313 5.313c2.929 0 5.313-2.383 5.313-5.313s-2.383-5.313-5.313-5.313zm8.688-5a1.875 1.875 0 100 3.75 1.875 1.875 0 000-3.75z"/></symbol><symbol id="icon-instagram-tablet_mobile" viewBox="0 0 34 32"><path d="M17.214 32h-.319c-2.508.006-4.826-.058-7.08-.195-2.066-.126-3.953-.84-5.455-2.065-1.45-1.182-2.44-2.781-2.942-4.75-.438-1.715-.461-3.398-.483-5.026a343.853 343.853 0 01-.036-3.96c.003-1.414.02-2.798.036-3.966.022-1.628.045-3.311.483-5.026.503-1.97 1.493-3.568 2.942-4.75C5.863 1.037 7.749.323 9.816.197 12.07.06 14.388-.004 16.902.002c2.509-.005 4.826.058 7.08.195 2.066.126 3.953.84 5.455 2.065 1.45 1.182 2.44 2.781 2.943 4.75.438 1.715.461 3.398.483 5.026.016 1.168.033 2.553.036 3.96v.006c-.003 1.408-.02 2.792-.036 3.96-.022 1.628-.045 3.311-.483 5.026-.503 1.97-1.492 3.568-2.942 4.75-1.503 1.225-3.389 1.939-5.455 2.065-2.159.131-4.376.195-6.768.195zm-.319-2.5c2.468.006 4.733-.056 6.934-.19 1.562-.095 2.917-.602 4.027-1.507 1.026-.837 1.732-1.991 2.1-3.431.364-1.428.385-2.96.406-4.442.016-1.16.032-2.535.036-3.929a339.15 339.15 0 00-.036-3.929c-.02-1.482-.041-3.015-.406-4.443-.368-1.44-1.074-2.594-2.1-3.431-1.11-.905-2.465-1.412-4.027-1.507a108.819 108.819 0 00-6.929-.19c-2.467-.006-4.733.056-6.934.19-1.563.095-2.917.602-4.027 1.507-1.026.837-1.732 1.991-2.1 3.431-.364 1.428-.385 2.96-.406 4.443a363.726 363.726 0 00-.036 3.932c.003 1.389.02 2.765.036 3.926.02 1.482.041 3.015.406 4.442.367 1.44 1.074 2.594 2.1 3.431 1.11.905 2.465 1.412 4.027 1.507 2.201.134 4.467.197 6.928.191zm-.059-5.688c-4.308 0-7.813-3.505-7.813-7.813s3.505-7.813 7.813-7.813 7.813 3.505 7.813 7.813-3.505 7.813-7.813 7.813zm0-13.125c-2.929 0-5.313 2.383-5.313 5.313s2.383 5.313 5.313 5.313c2.93 0 5.313-2.383 5.313-5.313s-2.383-5.313-5.313-5.313zm8.687-5a1.874 1.874 0 10-.001 3.749 1.874 1.874 0 00.001-3.749z"/></symbol><symbol id="icon-location-desktop" viewBox="0 0 23 32"><path d="M11.733 1.193c6.47 0 11.733 5.264 11.733 11.733 0 2.56-.809 4.993-2.341 7.034l-8.669 11.676c-.022.028-.055.039-.079.064-.433.464-1.058.347-1.367-.064-2.496-3.331-7.072-9.552-8.832-11.899l-.001-.003-.011-.014a11.648 11.648 0 01-2.167-6.794c0-6.47 5.264-11.733 11.733-11.733zm0 18.063c3.483 0 6.33-2.847 6.33-6.33s-2.847-6.33-6.33-6.33-6.33 2.847-6.33 6.33 2.847 6.33 6.33 6.33z"/></symbol><symbol id="icon-location-tablet_mobile" viewBox="0 0 23 32"><path d="M11.733 1.193c6.47 0 11.733 5.264 11.733 11.733 0 2.56-.809 4.993-2.341 7.034l-8.669 11.676c-.022.028-.055.039-.079.064-.433.464-1.058.347-1.367-.064-2.496-3.331-7.072-9.552-8.832-11.899l-.001-.003-.011-.014a11.648 11.648 0 01-2.167-6.794c0-6.47 5.264-11.733 11.733-11.733zm0 18.063c3.483 0 6.33-2.847 6.33-6.33s-2.847-6.33-6.33-6.33-6.33 2.847-6.33 6.33 2.847 6.33 6.33 6.33z"/></symbol><symbol id="icon-main-logo-desktop" viewBox="0 0 71 32"><path d="M42.261 15.997c0 .261-.008.521 0 .783.089 2.653-.736 5.043-2.06 7.296a32.621 32.621 0 00-1.25 2.314c-.316.649-.754 1.104-1.436 1.37-.381.148-.734.405-1.053.669-1.469 1.218-3.136 2.091-4.919 2.705-1.184.408-2.403.767-3.69.751-.384-.004-.768.114-1.152.115s-.768-.124-1.149-.108c-1.659.071-3.196-.441-4.721-.979-1.665-.586-3.136-1.513-4.519-2.617-1.952-1.558-3.343-3.52-4.365-5.765-.551-1.211-1-2.46-1.127-3.804-.021-.223-.095-.444-.16-.66-.464-1.507-.197-2.985.09-4.486.22-1.148.445-2.283.873-3.373 1.13-2.884 2.925-5.245 5.411-7.1C19.106 1.563 21.426.614 23.947.206c2.894-.468 5.718-.131 8.459.963 1.368.548 2.658 1.241 3.785 2.159 1.051.856 1.999 1.858 2.895 2.883.812.928 1.388 2.034 1.903 3.162.804 1.762 1.328 3.586 1.274 5.546-.012.362-.003.721-.004 1.08zm-1.11-3.57c-.08-.616-.13-1.329-.28-2.022-.427-1.992-1.576-3.548-3.107-4.818-.869-.722-1.817-1.349-2.751-1.988-.316-.216-.684-.415-1.053-.481-.95-.176-1.91-.34-2.873-.389-1.671-.085-3.172-.518-4.433-1.685-.929-.858-1.939-.941-2.904-.186-1.094.855-2.339 1.357-3.607 1.854-.93.364-1.825.823-2.719 1.276-.747.379-1.182.971-1.172 1.867.006.503-.224.923-.687 1.201-.387.234-.758.492-1.112.773-.989.781-1.76 1.661-1.926 3.027-.132 1.08-.457 2.148-1.194 3.038a2.045 2.045 0 00-.44 1.069c-.068.807-.04 1.625-.02 2.437.006.217.1.45.21.642.255.452.532.891.831 1.315.724 1.01 1.353 2.046 1.499 3.329.141 1.244.739 2.257 1.751 3.03 1.466 1.121 2.879 2.311 4.367 3.402.8.588 1.656 1.102 2.711 1.221s2.089.408 3.035.941c.198.107.416.174.64.197 1.334.144 2.57-.187 3.741-.814.367-.197.746-.375 1.126-.546.916-.412 1.931-.682 2.729-1.255.887-.639 1.836-.923 2.855-1.101.44-.077.8-.259 1.086-.588.342-.39.658-.802 1.015-1.179.368-.389.634-.802.699-1.356.099-.849.461-1.599.92-2.319.777-1.217 1.219-2.562 1.449-3.992.06-.375.095-.692-.09-1.023-.535-.953-.317-2.035-.486-3.049-.086-.548.112-1.148.194-1.832l-.002.001zM34.71 2.909c-.226-.251-.298-.364-.4-.434-.185-.128-.386-.233-.583-.344-1.68-.95-3.519-1.412-5.399-1.743-.378-.067-.775-.037-1.16-.022-.1.004-.22.102-.284.19-.029.04.036.18.092.248a3.6 3.6 0 001.578 1.092c1.061.383 2.177.594 3.304.623.477.013.954.104 1.429.169.406.058.811.127 1.421.223zM20.441 30.284c-1.127-.925-2.115-1.752-3.121-2.556a113.654 113.654 0 00-2.534-1.951c-.096-.072-.246-.07-.455-.124 1.025 1.728 4.449 4.354 6.111 4.632zM12.846 8.699c.68-.521 1.309-1.07 1.999-1.524.968-.633 1.338-1.421 1.11-2.773-.687.564-1.177 1.244-1.707 1.861-.56.651-.975 1.426-1.442 2.155-.036.059.022.175.039.281zm22.928 19.722c-.634-.044-1.273.069-1.671.412-.755.652-1.653.98-2.567 1.306-.48.171-.932.422-1.384.661-.062.033-.074.209-.061.313.004.035.174.092.243.069.821-.281 1.668-.507 2.445-.882.953-.459 1.847-1.04 2.759-1.579.096-.054.146-.181.235-.299zm-24.23-9.039c-.182.54-.146.838-.032 1.156.318.882.511 1.814 1.084 2.585.212.286.256.925.648.787.345-.12-.059-.627-.082-.968-.09-1.304-.773-2.355-1.618-3.561zm6.152-16.24l.085.129c.474-.176.952-.343 1.421-.532a224.27 224.27 0 003.049-1.254 2.49 2.49 0 00.566-.366c.049-.04.04-.175.025-.258-.008-.037-.104-.078-.16-.08a.99.99 0 00-.28.047c-1.377.393-2.676.974-3.919 1.68-.291.165-.527.422-.787.636zm24.188 14.005c.083-.097.148-.138.153-.183.134-1.421-.016-2.829-.21-4.233-.01-.071-.107-.172-.174-.18-.073-.01-.187.051-.232.117a.756.756 0 00-.132.352 13.567 13.567 0 00.226 3.46c.044.23.234.432.367.668zm-30.672-3.92c.537-.206.618-.578.675-.915.14-.82.491-1.61.375-2.477-.562 1.035-1.06 2.083-1.051 3.392zm13.007 18.007c-1.205-.535-1.532-.591-2.604-.441.455.173.864.448 1.275.452.429.006.894.534 1.329-.011z"/><path d="M26.704 20.593c-.824-.015-1.39-.361-1.809-1.03-.39-.624-1.04-.947-1.634-1.332-.75-.484-1.36-1.031-1.533-2.012-.12-.665.02-1.244.289-1.769.226-.439.629-.847 1.053-1.108.459-.283.84-.55 1.052-1.073.24-.602.845-.638 1.38-.746.504-.102 1.017-.167 1.514-.295.68-.174 1.297-.12 1.794.411.384.412.832.708 1.332.958.52.26.691.564.529 1.107-.111.369-.004.62.133.914.15.321.303.647.406.986.342 1.128-.052 2.077-1.106 2.58-.653.311-1.154.726-1.316 1.456a.68.68 0 01-.506.537c-.521.153-1.05.28-1.576.417zm3.458-4.729c.017-1.987-1.484-3.576-3.435-3.579-1.751 0-3.512 1.189-3.58 3.469-.055 1.824 1.459 3.524 3.432 3.53 2.403.012 3.536-1.663 3.583-3.42zm-7.034 1.9c0-.255.024-.385-.004-.503-.259-1.079-.427-2.148.16-3.188.042-.075-.055-.229-.088-.346-.115.037-.254.045-.341.117-.97.799-1.402 2.718.273 3.92zm3.602-5.977c.406.149.637.255.88.321.894.237 1.656.664 2.187 1.451.105.155.24.385.44.209.106-.094.141-.382.08-.526-.083-.191-.271-.43-.451-.468-.491-.103-.76-.46-1.08-.771-.538-.519-1.139-.681-2.055-.215zm-.056 7.822l-.012-.075c-.258 0-.517-.022-.771.009-.13.016-.249.127-.372.195.112.1.21.257.34.29.693.175 1.391.213 2.074-.055.117-.046.247-.106.32-.201.065-.08.086-.223.073-.331-.005-.04-.167-.101-.247-.088-.469.074-.936.167-1.402.254l-.002.001zm3.543-2.038c.48-.089.694-.361.722-.779a7.158 7.158 0 00-.015-1.056c-.008-.093-.136-.175-.21-.263-.107.101-.323.238-.304.299.195.609-.212 1.155-.194 1.798v.001zM34.606 20.323c-.028.014-.139.108-.259.12-.11.013-.27-.024-.337-.101a17.025 17.025 0 01-.977-1.199c-.08-.109-.113-.401-.067-.426.15-.083.443-.17.508-.098.386.427.725.897 1.074 1.357.034.046.024.125.059.346zM18.269 23.668c.178.014.531.025.874.084.086.015.2.183.2.283s-.099.274-.184.295c-.668.166-1.332.207-1.924-.241-.033-.031-.059-.07-.076-.112s-.023-.089-.018-.134c.013-.067.116-.16.186-.165.256-.022.513-.01.942-.01zM39.197 9.562l.253.139c-.072.129-.116.336-.22.373a10.36 10.36 0 01-1.476.423c-.144.028-.354-.114-.487-.231-.154-.136-.062-.431.132-.461.569-.088 1.142-.155 1.799-.242zM22.198 26.541c.267.125.491.16.6.294.299.372.572.764.819 1.174.12.195.01.406-.192.462-.111.031-.311-.06-.393-.16a12.78 12.78 0 01-.905-1.238c-.064-.102.035-.308.071-.532zM32.679 11.018c.017-.114 0-.244.053-.294.072-.066.226-.12.3-.085.101.049.167.182.236.286.194.291.385.584.569.882.082.134.193.276.2.42a.566.566 0 01-.173.398c-.056.051-.285.018-.341-.053-.37-.471-.813-.913-.845-1.554zM33.828 6.01c-.08.481-.112.836-.205 1.175a.973.973 0 01-.32.465c-.106.086-.291.073-.44.105-.012-.14-.056-.286-.03-.419.078-.41.182-.815.276-1.222.007-.032.005-.065.014-.096.074-.245.233-.432.487-.331.128.051.188.276.218.323zM26.934 9.141c.225.028.515.043.793.111.095.023.235.194.218.268-.029.132-.138.306-.254.345a.964.964 0 01-.563.003c-.32-.102-.618-.136-.937-.002-.21.088-.406-.004-.462-.214-.075-.281.136-.417.372-.456.252-.042.512-.035.833-.054zM31.921 22.97c-.091.398-.16.748-.258 1.089-.019.067-.16.157-.219.142-.106-.026-.256-.11-.278-.198a1.322 1.322 0 01-.016-.577c.075-.35.149-.682.008-1.039-.067-.171-.048-.445.211-.444.14 0 .34.173.403.317.102.229.109.499.148.71zM27.986 22.868c-.052.093-.077.204-.146.251-.421.291-.843.584-1.286.838-.113.065-.312.025-.456-.018-.212-.063-.256-.342-.08-.455.485-.312.972-.621 1.472-.908.08-.046.24.004.343.055.07.035.1.149.153.237zM22.621 4.155c.068.04.197.075.214.139.167.618.328 1.238.461 1.864.037.174-.192.27-.346.167-.483-.327-.785-1.536-.503-2.042.029-.05.1-.075.173-.128zM28.596 5.911c-.146-.098-.303-.147-.324-.231-.023-.091.052-.247.134-.321.355-.318.726-.617 1.112-.897.13-.092.4-.157.5-.085.236.166.112.401-.052.573-.221.231-.44.475-.694.662-.195.141-.445.201-.675.299zM19.403 9.177l-.354.335c-.101-.109-.25-.201-.293-.331a23.355 23.355 0 01-.446-1.555c-.018-.072.04-.219.1-.243.098-.04.259-.056.334 0 .147.109.314.254.362.418.126.425.192.87.297 1.377zM15.533 17.757c-.324.596-.571 1.207-1.175 1.533-.102.055-.326-.015-.435-.102-.185-.147 0-.27.09-.395.284-.392.545-.8.847-1.177.078-.097.275-.144.409-.131.091.008.166.164.264.272zM19.196 17.808c.169.098.292.128.315.192.038.106.057.272 0 .346-.093.117-.252.185-.388.263-.355.204-.705.42-1.073.594a.49.49 0 01-.416-.034c-.206-.147-.134-.383.032-.487.506-.318 1.039-.596 1.531-.873zM37.53 15.106c-.13.295-.313.74-.531 1.167-.034.066-.244.102-.333.063-.083-.037-.173-.205-.156-.295.087-.475.184-.952.33-1.411.045-.14.247-.267.403-.314.058-.017.208.201.28.334.041.075.007.191.007.457zM15.431 11.562c.574.517.505 1.218.569 1.866.012.12-.137.292-.256.379-.062.046-.316-.028-.322-.07-.09-.654-.16-1.312-.216-1.971-.004-.056.13-.125.225-.205zM28.841 27.56c.096.026.191.057.284.093.345.16.691.317 1.028.493.16.083.32.188.435.321.132.154-.019.451-.204.41-.625-.136-1.236-.325-1.704-.794-.069-.069-.068-.243-.045-.358.013-.065.134-.11.207-.165zM21.229 11.751c.033.104.147.265.107.366-.21.536-.453 1.059-.701 1.578-.03.064-.16.12-.237.11-.067-.008-.16-.103-.178-.175-.131-.579.282-1.615.743-1.876.048-.027.124-.004.265-.004zM39.113 20.539c-.072-.046-.222-.102-.3-.209-.031-.043.07-.239.156-.301.385-.281.777-.549 1.187-.789.11-.065.34-.069.421.003.075.067.086.321.018.414-.343.48-.776.846-1.483.883zM36.737 24.67c-.297-.031-.426-.034-.549-.062-.052-.012-.13-.074-.131-.114a.425.425 0 01.068-.259.487.487 0 01.24-.15c.457-.138.915-.276 1.38-.388.101-.024.313.043.326.1.03.137-.006.303-.06.441-.028.073-.142.134-.228.16-.397.11-.797.207-1.045.272zM22.962 21.355c-.033.14-.086.45-.189.742-.026.073-.226.142-.318.116s-.2-.179-.197-.274c.01-.541.036-1.083.091-1.622.012-.118.16-.221.246-.331.102.109.268.205.294.329.058.279.046.573.072 1.039zM44.4 4.422c0-1.146.276-2.016.829-2.608.559-.598 1.275-.898 2.148-.898s1.567.258 2.081.775c.521.516.782 1.342.782 2.475s-.276 1.99-.829 2.57c-.553.579-1.29.869-2.213.869-.797 0-1.45-.23-1.959-.69-.264-.239-.471-.57-.622-.992-.144-.428-.217-.929-.217-1.502zm2.948-3.41c-.634 0-1.155.283-1.563.85-.402.567-.603 1.398-.603 2.494s.192 1.896.575 2.4c.383.504.892.756 1.526.756.64 0 1.161-.283 1.563-.85.408-.573.612-1.401.612-2.485 0-1.09-.194-1.89-.584-2.4-.383-.51-.892-.765-1.526-.765zM51.869 7.569h-.782V.955h.782v3.042h3.061V.955h.782v6.614h-.782V4.092h-3.061v3.477zM59.73 7.569h-.123l.819-6.614h.311l1.978 6.113L64.684.955h.311l.819 6.614h-.782l-.65-5.291-1.705 5.291h-.594l-1.724-5.225-.631 5.225zM71.032.955a.63.63 0 01.179.463c0 .157-.035.318-.104.482l-1.686 3.43v2.239h-.782V5.538L66.755.956h.801l1.799 4.261 1.639-3.316c.069-.157.104-.321.104-.491s-.047-.302-.141-.397l.075-.057zM1.328 9.306c.487-.022.963-.033 1.427-.033.476 0 .974.05 1.494.15a5.31 5.31 0 011.56.566c.52.266.957.616 1.311 1.049.365.422.658.982.88 1.682s.332 1.548.332 2.547c0 .999-.166 1.898-.498 2.697-.321.788-.763 1.393-1.328 1.815-1.095.821-2.418 1.232-3.967 1.232-.542 0-1.112-.022-1.71-.067h-.83V9.306h1.328zm.05 11.505c.232.022.526.033.88.033s.62-.006.797-.017a4.28 4.28 0 00.73-.133c.31-.089.598-.205.863-.35s.542-.355.83-.633c.299-.289.553-.627.763-1.016.476-.91.714-2.098.714-3.563 0-1.043-.127-1.942-.382-2.697-.255-.766-.548-1.332-.88-1.698a3.439 3.439 0 00-1.178-.866c-.465-.222-.835-.35-1.112-.383s-.598-.05-.963-.05-.719.017-1.062.05v11.321zM44.67 20.944h-.216V9.29h.564l6.905 10.772V9.29h.216v11.654h-1.212l-6.258-9.656v9.656zM62.359 9.29h.216v6.66c0 1.743-.343 3.025-1.029 3.846-.686.81-1.582 1.215-2.689 1.215-.697 0-1.289-.061-1.776-.183a3.819 3.819 0 01-1.378-.716c-.885-.688-1.328-2.076-1.328-4.162V9.29h1.378v6.643c0 2.02.304 3.369.913 4.046.31.333.631.561.963.683.343.122.752.183 1.228.183 1.062 0 1.909-.388 2.539-1.165.642-.788.963-2.037.963-3.746V9.291zM68.237 20.944h-1.378V9.456h-2.871V9.29h7.137v.166h-2.888v11.488z"/></symbol><symbol id="icon-main-logo-tablet_mobile" viewBox="0 0 71 32"><path d="M42.398 15.997c0 .261-.008.521 0 .783.089 2.653-.738 5.043-2.067 7.296a33.091 33.091 0 00-1.255 2.314c-.316.649-.756 1.104-1.44 1.37-.382.148-.736.405-1.056.669-1.474 1.218-3.146 2.091-4.935 2.705-1.188.408-2.411.767-3.702.751-.385-.004-.77.114-1.156.115s-.771-.124-1.153-.108c-1.664.071-3.206-.441-4.736-.979-1.671-.587-3.146-1.513-4.533-2.617-1.958-1.558-3.354-3.519-4.379-5.765-.553-1.211-1.003-2.46-1.13-3.804-.021-.223-.095-.444-.16-.66-.465-1.507-.198-2.985.09-4.486.22-1.148.447-2.283.876-3.373 1.134-2.884 2.934-5.245 5.428-7.1C19.169 1.563 21.496.614 24.026.206c2.903-.468 5.737-.131 8.487.963 1.372.548 2.667 1.241 3.797 2.159 1.055.856 2.006 1.858 2.905 2.883.814.928 1.393 2.034 1.909 3.162.806 1.762 1.332 3.586 1.279 5.546-.012.362-.003.721-.004 1.08zm-1.114-3.57c-.08-.616-.13-1.329-.281-2.022-.428-1.992-1.581-3.548-3.117-4.818-.872-.722-1.823-1.349-2.76-1.988-.317-.216-.686-.415-1.057-.481-.953-.176-1.916-.34-2.882-.389-1.676-.085-3.182-.518-4.447-1.685-.931-.858-1.946-.941-2.914-.186-1.097.855-2.346 1.357-3.619 1.854-.933.364-1.831.823-2.728 1.276-.749.379-1.186.971-1.176 1.867.006.503-.224.923-.689 1.201-.388.234-.761.492-1.116.773-.992.781-1.765 1.661-1.932 3.027-.132 1.08-.459 2.148-1.198 3.038-.247.306-.4.677-.441 1.069-.068.807-.04 1.625-.02 2.437.006.217.1.45.211.642.255.452.534.891.834 1.315.726 1.01 1.358 2.046 1.504 3.329.141 1.244.741 2.257 1.757 3.03 1.471 1.121 2.889 2.311 4.381 3.402.802.588 1.661 1.102 2.72 1.221s2.096.408 3.045.941c.199.107.417.174.642.197 1.339.144 2.578-.187 3.754-.814.369-.197.748-.375 1.13-.546.919-.412 1.937-.682 2.738-1.255.89-.639 1.842-.923 2.864-1.101.441-.077.802-.259 1.09-.588.343-.39.66-.802 1.018-1.179.37-.389.636-.802.701-1.356.099-.849.462-1.599.923-2.319.78-1.217 1.223-2.562 1.454-3.992.061-.375.095-.692-.091-1.023-.537-.953-.318-2.035-.487-3.049-.086-.548.112-1.148.195-1.832l-.002.001zm-6.461-9.518c-.227-.251-.298-.364-.401-.434-.185-.128-.388-.233-.585-.344-1.685-.95-3.53-1.412-5.416-1.743-.379-.067-.777-.037-1.163-.022-.101.004-.221.102-.284.19-.029.04.037.18.092.248.419.5.966.878 1.583 1.092 1.064.383 2.184.594 3.315.623.479.013.957.104 1.434.169.407.058.813.127 1.426.223zM20.507 30.284c-1.131-.925-2.122-1.752-3.131-2.556-.835-.666-1.689-1.309-2.542-1.952-.096-.072-.247-.07-.457-.124 1.029 1.728 4.464 4.354 6.131 4.632zm-7.62-21.585c.682-.521 1.313-1.07 2.006-1.524.971-.633 1.343-1.421 1.113-2.773-.689.564-1.181 1.244-1.712 1.861-.562.651-.978 1.426-1.446 2.155-.036.059.022.175.039.281zm23.002 19.722c-.636-.044-1.277.069-1.676.412-.757.652-1.658.98-2.575 1.306-.481.171-.935.422-1.389.662-.063.033-.074.209-.061.313.004.035.174.092.244.069.823-.281 1.674-.507 2.453-.883.956-.459 1.853-1.04 2.768-1.579.096-.054.146-.181.236-.299zm-24.307-9.04c-.183.54-.147.838-.032 1.156.319.883.513 1.814 1.088 2.585.213.286.257.925.65.787.346-.12-.059-.627-.083-.968-.091-1.304-.776-2.355-1.623-3.561zm6.171-16.239l.085.129c.475-.176.955-.343 1.426-.532 1.023-.41 2.042-.829 3.059-1.254a2.48 2.48 0 00.568-.366c.049-.04.04-.175.025-.258-.008-.037-.105-.078-.16-.08a.997.997 0 00-.281.047c-1.382.393-2.685.974-3.932 1.68-.292.165-.528.422-.79.636zm24.266 14.005c.084-.097.149-.138.153-.183.135-1.421-.016-2.829-.21-4.233-.01-.071-.108-.172-.174-.18-.073-.01-.188.051-.232.117a.745.745 0 00-.132.352 13.522 13.522 0 00.227 3.46c.044.23.234.432.369.668zm-30.771-3.92c.539-.206.62-.578.678-.915.141-.82.493-1.61.377-2.477-.564 1.035-1.064 2.083-1.054 3.392zm13.05 18.007c-1.209-.535-1.537-.591-2.613-.441.456.173.867.448 1.279.452.43.006.897.534 1.334-.011z"/><path d="M26.79 20.593c-.826-.015-1.394-.361-1.815-1.03-.392-.624-1.043-.947-1.64-1.332-.752-.484-1.364-1.031-1.538-2.012-.12-.666.02-1.244.29-1.769.227-.439.631-.847 1.056-1.108.461-.283.843-.55 1.055-1.073.241-.602.847-.638 1.384-.746.506-.102 1.02-.167 1.519-.295.682-.174 1.301-.12 1.799.411.385.412.835.708 1.336.958.522.26.694.564.53 1.107-.111.369-.004.62.134.914.15.321.305.647.408.986.343 1.128-.052 2.077-1.109 2.58-.656.311-1.157.726-1.321 1.456a.68.68 0 01-.508.537c-.523.153-1.054.28-1.581.417zm3.47-4.729c.017-1.987-1.488-3.576-3.446-3.579-1.756 0-3.523 1.189-3.592 3.469-.055 1.824 1.464 3.524 3.443 3.53 2.411.012 3.548-1.663 3.595-3.42zm-7.057 1.9c0-.255.024-.385-.004-.503-.26-1.079-.428-2.148.161-3.188.043-.075-.055-.229-.088-.346-.116.037-.255.045-.343.117-.973.799-1.407 2.718.274 3.92zm3.613-5.977c.407.149.639.255.883.321.897.237 1.662.664 2.194 1.451.105.155.241.385.441.209.107-.094.142-.382.08-.526-.083-.191-.272-.43-.453-.468-.493-.103-.762-.46-1.083-.771-.54-.519-1.143-.682-2.062-.215zm-.055 7.822l-.012-.075c-.258 0-.519-.022-.773.009-.131.016-.25.127-.373.195.113.1.211.257.341.29.695.175 1.395.213 2.081-.055.117-.046.248-.106.321-.201.065-.08.086-.223.073-.331-.005-.04-.167-.101-.248-.088-.471.074-.939.167-1.407.254l-.002.001zm3.553-2.038c.482-.089.696-.361.725-.779a7.158 7.158 0 00-.015-1.056c-.008-.093-.137-.175-.21-.263-.107.101-.325.238-.305.299.195.609-.213 1.155-.194 1.797v.001zM34.718 20.323c-.028.014-.139.107-.26.12-.11.013-.27-.024-.339-.101a17.367 17.367 0 01-.981-1.199c-.08-.109-.113-.401-.067-.426.15-.083.444-.17.51-.098.387.427.728.897 1.078 1.357.034.046.024.125.059.346zM18.329 23.668c.179.014.532.025.877.084.086.015.201.183.201.283s-.099.274-.185.295c-.67.166-1.337.207-1.93-.241a.305.305 0 01-.095-.246c.013-.067.117-.16.187-.165.257-.022.515-.01.945-.01zM39.324 9.562l.254.139c-.072.129-.116.336-.221.373-.482.177-.977.319-1.481.423-.145.028-.355-.114-.489-.231-.154-.136-.062-.431.132-.461.571-.088 1.146-.155 1.804-.242zM22.269 26.541c.268.125.492.16.602.294.3.372.574.764.821 1.174.12.195.01.406-.192.462-.111.031-.313-.06-.394-.16-.327-.394-.63-.807-.907-1.238-.064-.102.035-.308.071-.532zM32.785 11.018c.017-.114 0-.244.053-.294.072-.066.227-.12.301-.085.102.049.167.182.237.286.194.291.386.584.571.882.083.134.194.276.201.42a.566.566 0 01-.173.398c-.056.051-.286.018-.342-.053-.371-.471-.815-.913-.848-1.554zM33.938 6.01c-.08.481-.112.836-.206 1.175a.975.975 0 01-.321.465c-.106.086-.292.073-.441.105-.012-.14-.056-.286-.03-.419.078-.41.183-.815.277-1.222.007-.032.005-.065.014-.096.074-.245.234-.432.489-.331.129.051.189.276.218.323zM27.021 9.141c.226.028.517.043.796.111.095.023.235.194.219.268-.029.132-.139.306-.255.345a.971.971 0 01-.565.003c-.321-.102-.62-.136-.94-.002-.21.088-.408-.004-.464-.214-.075-.281.136-.417.373-.456.253-.042.514-.035.836-.054zM32.025 22.97c-.091.398-.16.748-.259 1.089-.019.067-.16.157-.22.142-.107-.026-.257-.11-.278-.198a1.322 1.322 0 01-.016-.577c.075-.35.15-.682.008-1.039-.067-.171-.048-.444.212-.444.14 0 .341.173.404.317.102.229.109.499.149.71zM28.077 22.868c-.052.093-.077.204-.146.251-.422.291-.846.584-1.29.838-.113.065-.313.025-.458-.018-.212-.063-.256-.342-.08-.455.486-.312.975-.621 1.476-.908.08-.046.241.004.344.055.07.035.1.149.154.237zM22.695 4.155c.069.04.198.075.215.139.168.618.329 1.238.463 1.864.037.174-.193.27-.347.166-.485-.327-.787-1.536-.504-2.042.029-.05.101-.075.174-.128zM28.689 5.911c-.146-.097-.304-.147-.325-.231-.023-.091.053-.247.134-.321.356-.318.728-.618 1.115-.897.13-.092.401-.157.502-.085.237.166.112.401-.053.573-.221.231-.441.475-.696.662-.196.141-.447.201-.677.299zM19.466 9.177l-.355.335c-.101-.109-.251-.201-.294-.331a23.988 23.988 0 01-.448-1.555c-.018-.072.04-.219.1-.243.098-.04.26-.056.335 0 .147.109.315.254.363.418.126.425.193.87.298 1.377zM15.583 17.757c-.325.596-.572 1.207-1.178 1.533-.102.055-.327-.015-.436-.102-.185-.147 0-.27.09-.395.284-.392.547-.8.849-1.176.078-.097.276-.144.41-.131.091.008.166.164.265.272zM19.258 17.807c.17.098.293.128.316.192.038.106.057.272 0 .346-.093.117-.252.185-.39.263-.356.204-.707.42-1.077.594a.488.488 0 01-.417-.035c-.207-.147-.134-.383.032-.487.508-.318 1.042-.597 1.536-.873zM37.652 15.106c-.131.295-.315.74-.532 1.167-.034.066-.245.102-.334.063-.083-.037-.174-.205-.157-.295.087-.475.184-.952.331-1.411.045-.14.248-.267.404-.314.058-.017.209.201.281.334.041.075.007.191.007.457zM15.481 11.562c.576.517.507 1.218.571 1.866.012.12-.138.292-.257.379-.063.046-.317-.028-.323-.07a37.093 37.093 0 01-.216-1.971c-.004-.056.131-.125.225-.205zM28.934 27.56c.097.026.191.057.284.093.346.16.694.317 1.031.493.16.083.321.188.436.321.133.154-.019.451-.205.41-.627-.136-1.24-.325-1.71-.794-.069-.069-.068-.243-.045-.358.013-.065.134-.11.208-.165zM21.298 11.751c.033.104.147.265.107.366a24.44 24.44 0 01-.703 1.578c-.03.064-.16.12-.238.11-.067-.008-.16-.103-.178-.175-.132-.579.283-1.615.746-1.876.048-.027.124-.004.266-.004zM39.24 20.539c-.072-.046-.223-.102-.301-.209-.031-.043.07-.239.157-.301.386-.281.78-.549 1.191-.789.111-.065.341-.069.422.003.075.067.086.321.018.414-.344.48-.778.846-1.488.883zM36.856 24.67c-.298-.031-.427-.034-.551-.062-.053-.012-.131-.074-.132-.114a.425.425 0 01.068-.259.497.497 0 01.241-.15c.459-.138.918-.276 1.384-.388.101-.024.314.043.327.1.031.137-.006.303-.06.441-.028.073-.142.134-.229.16-.399.11-.799.207-1.048.272zM23.036 21.355c-.033.14-.086.45-.189.742-.026.073-.226.142-.319.116s-.201-.179-.198-.274c.01-.541.037-1.083.092-1.622.012-.117.16-.221.246-.331.103.109.269.205.295.329.058.279.046.573.073 1.038zM44.544 4.422c0-1.146.277-2.016.832-2.608.561-.598 1.279-.898 2.154-.898s1.572.258 2.088.775c.523.516.784 1.342.784 2.475s-.277 1.99-.832 2.57c-.554.579-1.294.869-2.221.869-.8 0-1.455-.23-1.965-.69-.265-.239-.472-.57-.624-.992-.145-.428-.217-.929-.217-1.502zm2.958-3.41c-.636 0-1.159.283-1.569.85-.403.567-.605 1.398-.605 2.494s.192 1.896.576 2.4a1.83 1.83 0 001.531.756c.643 0 1.165-.283 1.569-.85.409-.573.614-1.401.614-2.485 0-1.09-.195-1.89-.586-2.4a1.823 1.823 0 00-1.531-.765zM52.037 7.569h-.784V.955h.784v3.042h3.071V.955h.784v6.614h-.784V4.092h-3.071v3.477zM59.924 7.569h-.123l.822-6.614h.312l1.984 6.113L64.894.955h.312l.822 6.614h-.784l-.652-5.291-1.71 5.291h-.595l-1.729-5.225-.633 5.225zM71.262.955c.12.12.18.274.18.463 0 .157-.035.318-.104.482l-1.691 3.43v2.239h-.784V5.538L66.973.956h.803l1.805 4.261 1.644-3.316c.069-.157.104-.321.104-.491s-.047-.302-.142-.397l.076-.057zM1.332 9.306c.488-.022.966-.033 1.432-.033.477 0 .977.05 1.499.15.533.1 1.055.289 1.565.566.522.266.96.616 1.315 1.049.366.422.66.982.883 1.682s.333 1.548.333 2.547c0 .999-.167 1.898-.5 2.697-.322.788-.766 1.393-1.332 1.815-1.099.821-2.426 1.232-3.98 1.232-.544 0-1.116-.022-1.715-.067h-.833V9.306h1.332zm.05 11.505c.233.022.527.033.883.033s.622-.006.799-.017c.178-.011.422-.055.733-.133.311-.089.599-.205.866-.35s.544-.355.833-.633c.3-.289.555-.627.766-1.016.477-.91.716-2.098.716-3.563 0-1.043-.128-1.942-.383-2.697-.255-.766-.55-1.332-.883-1.698a3.445 3.445 0 00-1.182-.866c-.466-.222-.838-.35-1.116-.383s-.599-.05-.966-.05-.722.017-1.066.05v11.321zM44.814 20.944h-.216V9.29h.566l6.927 10.772V9.29h.216v11.654h-1.216l-6.278-9.656v9.656zM62.561 9.29h.216v6.66c0 1.743-.344 3.025-1.032 3.846-.688.81-1.587 1.215-2.698 1.215-.699 0-1.293-.061-1.782-.183a3.835 3.835 0 01-1.382-.716c-.888-.688-1.332-2.076-1.332-4.162V9.29h1.382v6.643c0 2.02.305 3.369.916 4.046.311.333.633.561.966.683.344.122.755.183 1.232.183 1.066 0 1.915-.388 2.548-1.165.644-.788.966-2.037.966-3.746V9.291zM68.458 20.944h-1.382V9.456h-2.881V9.29h7.16v.166h-2.897v11.488z"/></symbol><symbol id="icon-mobile-menu-close" viewBox="0 0 32 32"><path d="M30.355 32a1.646 1.646 0 001.163-2.811L2.811.482A1.646 1.646 0 10.483 2.811L29.19 31.517a1.65 1.65 0 001.165.483z"/><path d="M1.645 32c.422 0 .843-.16 1.163-.483L31.517 2.811A1.647 1.647 0 0029.188.482L.481 29.189A1.646 1.646 0 001.644 32z"/></symbol><symbol id="icon-mobile-menu-open" viewBox="0 0 60 32"><path d="M2 0h56a2 2 0 110 4H2a2 2 0 110-4zM2 14h56a2 2 0 110 4H2a2 2 0 110-4zM2 28h56a2 2 0 110 4H2a2 2 0 110-4z"/></symbol><symbol id="icon-phone-desktop" viewBox="0 0 32 32"><path d="M29.43 21.003c-1.959 0-3.882-.306-5.705-.909-.893-.305-1.991-.025-2.536.535l-3.598 2.716c-4.172-2.227-6.743-4.797-8.939-8.938l2.636-3.504a2.584 2.584 0 00.636-2.62 18.192 18.192 0 01-.912-5.715A2.57 2.57 0 008.445 0H2.569A2.57 2.57 0 00.001 2.568c0 16.228 13.202 29.43 29.43 29.43a2.57 2.57 0 002.568-2.568v-5.86a2.57 2.57 0 00-2.568-2.567z"/></symbol><symbol id="icon-phone-tablet_mobile" viewBox="0 0 32 32"><path d="M29.43 21.003c-1.959 0-3.882-.306-5.705-.909-.893-.305-1.991-.025-2.536.535l-3.598 2.716c-4.172-2.227-6.743-4.797-8.939-8.938l2.636-3.504a2.584 2.584 0 00.636-2.62 18.192 18.192 0 01-.912-5.715A2.57 2.57 0 008.445 0H2.569A2.57 2.57 0 00.001 2.568c0 16.228 13.202 29.43 29.43 29.43a2.57 2.57 0 002.568-2.568v-5.86a2.57 2.57 0 00-2.568-2.567z"/></symbol><symbol id="icon-program-desktop-1" viewBox="0 0 35 32"><path d="M25.046 8.507a.492.492 0 01-.489-.489 7.164 7.164 0 00-14.328 0 .492.492 0 01-.489.489.492.492 0 01-.489-.489 8.145 8.145 0 0116.286 0 .488.488 0 01-.489.489z"/><path d="M26.474 19.581a.488.488 0 11-.006-.978 7.114 7.114 0 007.072-7.023 7.11 7.11 0 00-7.16-7.037 7.262 7.262 0 00-2.132.316.489.489 0 01-.286-.935 8.26 8.26 0 012.419-.359 8.09 8.09 0 018.139 8.016 8.097 8.097 0 01-8.04 8.002h-.006zM8.308 19.581h-.006a8.1 8.1 0 01-8.04-8.002 8.089 8.089 0 018.139-8.016 8.26 8.26 0 012.419.359.49.49 0 01.331.613.485.485 0 01-.242.291.5.5 0 01-.376.032 7.267 7.267 0 00-2.132-.316 7.108 7.108 0 00-7.16 7.037 7.118 7.118 0 007.072 7.023.48.48 0 01.345.145.495.495 0 01.103.534.486.486 0 01-.454.299z"/><path d="M26.474 31.756H8.308a.492.492 0 01-.489-.489V19.093a.492.492 0 01.489-.489.492.492 0 01.489.489v11.684h17.187V19.093a.492.492 0 01.489-.489.492.492 0 01.489.489v12.174a.488.488 0 01-.489.489z"/><path d="M29.88 27.014H11.714a.488.488 0 110-.978H29.88a.492.492 0 01.489.489.488.488 0 01-.489.489z"/></symbol><symbol id="icon-program-desktop-2" viewBox="0 0 35 32"><path d="M11.847 0C8.169 0 5.173 2.996 5.173 6.674s2.996 6.674 6.674 6.674c3.678 0 6.674-2.996 6.674-6.674S15.525 0 11.847 0zm0 12.229c-3.071 0-5.562-2.498-5.562-5.562s2.498-5.562 5.562-5.562c3.071 0 5.562 2.498 5.562 5.562s-2.498 5.562-5.562 5.562zM25.516 2.771c-2.764 0-5.009 2.245-5.009 5.009s2.245 5.009 5.009 5.009c2.764 0 5.009-2.245 5.009-5.009s-2.245-5.009-5.009-5.009zm0 8.912c-2.15 0-3.897-1.747-3.897-3.897s1.747-3.897 3.897-3.897c2.15 0 3.897 1.747 3.897 3.897s-1.747 3.897-3.897 3.897z"/><path d="M34.476 20.131c-.505-3.044-2.395-5.609-5.616-6.954 0 0-1.426 1.078-3.344 1.044-2.095-.041-3.344-1.044-3.344-1.044s-1.556.58-2.811 1.788c-1.16-1.03-3.119-1.87-3.119-1.87s-1.795 1.365-4.402 1.344c-2.736-.02-4.388-1.344-4.388-1.344S1.536 15.129.287 22.028c0 0-1.338 3.658 1.761 9.124h19.606s1.392-2.423 1.638-3.897h9.752c2.395-3.63 1.433-7.124 1.433-7.124zM20.964 30.04H2.737c-2.382-4.524-1.351-7.827-1.351-7.827a10.57 10.57 0 015.985-7.861c2.73 1.604 6.23 1.604 8.96 0a10.57 10.57 0 015.985 7.861c-.007 0 .983 4.067-1.351 7.827zm11.43-3.897h-8.878c.341-1.965-.109-4.115-.109-4.115a11.66 11.66 0 00-3.228-6.312 7.951 7.951 0 011.904-1.283c2.095 1.201 4.763 1.201 6.858 0a7.956 7.956 0 014.436 5.882s.812 2.757-.983 5.828z"/></symbol><symbol id="icon-program-desktop-3" viewBox="0 0 32 32"><path d="M16 0C7.178 0 0 7.178 0 16s7.178 16 16 16 16-7.178 16-16S24.822 0 16 0zm0 30.933C7.766 30.933 1.067 24.234 1.067 16S7.766 1.067 16 1.067 30.933 7.766 30.933 16 24.234 30.933 16 30.933z"/><path d="M16.533 13.878V8.469a.533.533 0 10-1.066 0v5.409a2.13 2.13 0 00-1.524 1.524h-3.809a.533.533 0 100 1.066h3.809a2.132 2.132 0 002.058 1.6 2.135 2.135 0 002.133-2.133c0-.992-.683-1.819-1.6-2.058zM16 17.002a1.068 1.068 0 010-2.134 1.068 1.068 0 010 2.134zM16 5.269a.533.533 0 00.533-.533v-.533a.533.533 0 10-1.066 0v.533c0 .295.239.533.533.533zM16 26.602a.533.533 0 00-.533.533v.533a.533.533 0 101.066 0v-.533a.533.533 0 00-.533-.533zM27.733 15.402H27.2a.533.533 0 100 1.066h.533a.533.533 0 100-1.066zM4.8 15.402h-.533a.533.533 0 100 1.066H4.8a.533.533 0 100-1.066zM23.919 7.262l-.377.377a.532.532 0 00.377.91.532.532 0 00.377-.156l.377-.377a.534.534 0 00-.754-.754zM7.703 23.478l-.377.377a.532.532 0 00.377.91.532.532 0 00.377-.156l.377-.377a.534.534 0 00-.754-.754zM24.297 23.478a.533.533 0 10-.754.754l.377.377a.532.532 0 10.754-.754l-.377-.377zM8.081 7.261a.533.533 0 10-.754.754l.377.377a.532.532 0 10.754-.754l-.377-.377z"/></symbol><symbol id="icon-program-desktop-4" viewBox="0 0 47 32"><path d="M35.987 13.842C35.987 5.481 27.173 0 18.373 0 9.538 0 .76 5.506.76 13.842c0 3.154 1.381 6.237 3.889 8.684a.378.378 0 01.096.371c-.788 2.886-2.654 5.493-3.419 6.48a.989.989 0 00-.102 1.06c.171.339.51.547.888.547h.026c3.746-.093 8.089-1.151 10.773-3.79a.382.382 0 01.36-.097c1.649.391 3.366.589 5.103.589 8.832 0 17.614-5.504 17.614-13.842zM13.58 25.79a1.718 1.718 0 00-1.61.446c-2.684 2.639-7.067 3.239-9.142 3.372.948-1.308 2.489-3.711 3.211-6.359a1.721 1.721 0 00-.453-1.684c-2.279-2.223-3.484-4.894-3.484-7.723 0-6.893 7.3-12.501 16.272-12.501s16.272 5.608 16.272 12.501-7.3 12.501-16.272 12.501c-1.633 0-3.245-.186-4.793-.553z"/><path d="M40.3 24.986c3.91-1.976 6.245-5.344 6.245-9.01 0-5.18-4.683-9.607-11.135-10.525a.67.67 0 10-.19 1.327c5.784.823 9.983 4.692 9.983 9.198 0 3.149-2.059 6.07-5.509 7.813a1.658 1.658 0 00-.874 1.823c.327 1.537 1.023 2.96 1.58 3.924-3.961-.659-5.462-2.56-5.937-3.382a1.654 1.654 0 00-1.432-.823h-.054c-.744 0-1.488-.052-2.213-.153a.672.672 0 00-.187 1.329c.786.11 1.594.166 2.4.166h.056c.112 0 .215.058.269.152 1.816 3.148 5.992 3.952 7.703 4.151.378.044.738-.129.94-.452s.199-.721-.007-1.041c-.515-.803-1.435-2.409-1.806-4.15a.314.314 0 01.167-.346zM7.937 11.443c-1.282 0-2.324 1.043-2.324 2.324s1.043 2.324 2.324 2.324 2.324-1.043 2.324-2.324a2.327 2.327 0 00-2.324-2.324zm0 3.308a.984.984 0 010-1.966.984.984 0 010 1.966zM14.568 11.443c-1.282 0-2.324 1.043-2.324 2.324s1.043 2.324 2.324 2.324 2.325-1.043 2.325-2.324a2.327 2.327 0 00-2.325-2.324zm0 3.308a.984.984 0 010-1.966.984.984 0 010 1.966zM21.199 11.443c-1.282 0-2.324 1.043-2.324 2.324s1.043 2.324 2.324 2.324 2.325-1.043 2.325-2.324a2.327 2.327 0 00-2.325-2.324zm0 3.308a.984.984 0 010-1.966.984.984 0 010 1.966zM27.83 11.443c-1.282 0-2.325 1.043-2.325 2.324s1.043 2.324 2.325 2.324 2.324-1.043 2.324-2.324a2.327 2.327 0 00-2.324-2.324zm0 3.308a.984.984 0 010-1.966.984.984 0 010 1.966z"/></symbol><symbol id="icon-program-tablet_mobile-1" viewBox="0 0 35 32"><path d="M25.172 8.292a.471.471 0 01-.467-.467 6.844 6.844 0 00-6.841-6.705 6.84 6.84 0 00-6.841 6.705.471.471 0 01-.467.467.471.471 0 01-.467-.467 7.778 7.778 0 0115.552 0 .47.47 0 01-.467.467z"/><path d="M26.536 18.868a.466.466 0 01-.47-.465.466.466 0 01.465-.47 6.791 6.791 0 006.754-6.706 6.789 6.789 0 00-6.837-6.721 6.953 6.953 0 00-2.036.302.47.47 0 01-.545-.665.466.466 0 01.271-.229 7.896 7.896 0 012.31-.343 7.725 7.725 0 017.772 7.655 7.734 7.734 0 01-7.677 7.641h-.006zM9.188 18.868h-.006a7.729 7.729 0 01-7.677-7.641 7.722 7.722 0 017.772-7.655 7.896 7.896 0 012.31.343.463.463 0 01.281.227.469.469 0 01-.555.667 6.953 6.953 0 00-2.036-.302 6.789 6.789 0 00-6.837 6.721 6.793 6.793 0 006.754 6.706.463.463 0 01.33.139.478.478 0 01.134.331.463.463 0 01-.139.33.467.467 0 01-.331.135z"/><path d="M26.536 30.495H9.188a.47.47 0 01-.467-.467V18.402a.471.471 0 01.467-.467.47.47 0 01.467.467V29.56h16.413V18.402a.47.47 0 01.797-.33.47.47 0 01.137.33v11.626a.47.47 0 01-.467.467z"/><path d="M29.789 25.966H12.441a.47.47 0 01-.33-.797.471.471 0 01.33-.137h17.348a.47.47 0 01.33.797.465.465 0 01-.33.137z"/></symbol><symbol id="icon-program-tablet_mobile-2" viewBox="0 0 35 32"><path d="M11.976.729c-3.63 0-6.587 2.957-6.587 6.587s2.957 6.587 6.587 6.587 6.587-2.957 6.587-6.587S15.606.729 11.976.729zm0 12.07c-3.031 0-5.489-2.465-5.489-5.489s2.465-5.489 5.489-5.489c3.031 0 5.489 2.465 5.489 5.489S15 12.799 11.976 12.799zM25.467 3.463c-2.728 0-4.944 2.216-4.944 4.944s2.216 4.944 4.944 4.944c2.728 0 4.944-2.216 4.944-4.944s-2.216-4.944-4.944-4.944zm0 8.797c-2.122 0-3.846-1.724-3.846-3.846s1.724-3.846 3.846-3.846 3.846 1.724 3.846 3.846-1.724 3.846-3.846 3.846z"/><path d="M34.31 20.599c-.498-3.004-2.364-5.537-5.543-6.864 0 0-1.408 1.064-3.3 1.031-2.068-.04-3.3-1.031-3.3-1.031s-1.536.572-2.775 1.765c-1.145-1.017-3.078-1.846-3.078-1.846s-1.771 1.347-4.344 1.327c-2.701-.02-4.331-1.327-4.331-1.327s-5.84 2.007-7.072 8.817c0 0-1.32 3.61 1.738 9.005h19.351s1.374-2.391 1.616-3.846h9.625c2.364-3.583 1.414-7.032 1.414-7.032zm-13.336 9.779H2.983c-2.351-4.466-1.334-7.726-1.334-7.726a10.433 10.433 0 015.907-7.759c2.694 1.583 6.15 1.583 8.844 0a10.432 10.432 0 015.907 7.759c-.007 0 .97 4.014-1.334 7.726zm11.282-3.845h-8.763c.337-1.94-.108-4.061-.108-4.061a11.502 11.502 0 00-3.186-6.23 7.87 7.87 0 011.879-1.266 6.889 6.889 0 006.769 0 7.849 7.849 0 014.378 5.806s.802 2.721-.97 5.752z"/></symbol><symbol id="icon-program-tablet_mobile-3" viewBox="0 0 34 32"><path d="M16.631.249C7.931.249.853 7.327.853 16.027s7.078 15.778 15.778 15.778 15.778-7.078 15.778-15.778S25.331.249 16.631.249zm0 30.503c-8.12 0-14.726-6.606-14.726-14.726S8.511 1.3 16.631 1.3c8.12 0 14.726 6.606 14.726 14.726s-6.606 14.726-14.726 14.726z"/><path d="M17.157 13.934V8.6a.526.526 0 00-1.052 0v5.334a2.098 2.098 0 00-1.503 1.503h-3.756a.526.526 0 000 1.052h3.756a2.102 2.102 0 002.029 1.578c1.16 0 2.104-.944 2.104-2.104a2.1 2.1 0 00-1.578-2.029zm-.526 3.081c-.58 0-1.052-.472-1.052-1.052s.472-1.052 1.052-1.052c.58 0 1.052.472 1.052 1.052s-.472 1.052-1.052 1.052zM16.631 5.445c.29 0 .526-.235.526-.526v-.526a.526.526 0 00-1.052 0v.526c0 .291.236.526.526.526zM16.631 26.482a.526.526 0 00-.526.526v.526a.526.526 0 001.052 0v-.526a.526.526 0 00-.526-.526zM28.201 15.437h-.526a.526.526 0 000 1.052h.526a.526.526 0 000-1.052zM5.587 15.437h-.526a.526.526 0 000 1.052h.526a.526.526 0 000-1.052zM24.44 7.41l-.372.372a.525.525 0 10.744.744l.372-.372a.525.525 0 10-.744-.744zM8.45 23.4l-.372.372a.525.525 0 10.744.744l.372-.372a.525.525 0 10-.744-.744zM24.812 23.401a.525.525 0 10-.744.744l.372.372a.523.523 0 00.744 0 .525.525 0 000-.744l-.372-.372zM8.822 7.409a.525.525 0 10-.744.744l.372.372a.523.523 0 00.744 0 .525.525 0 000-.744l-.372-.372z"/></symbol><symbol id="icon-program-tablet_mobile-4" viewBox="0 0 46 32"><path d="M35.37 13.998C35.37 5.936 26.872.651 18.387.651 9.869.651 1.404 5.96 1.404 13.998c0 3.041 1.332 6.014 3.75 8.373.093.09.128.227.092.358-.76 2.783-2.559 5.296-3.297 6.248a.952.952 0 00-.098 1.022.952.952 0 00.856.527h.025c3.612-.09 7.799-1.11 10.387-3.654a.37.37 0 01.347-.094c1.59.377 3.246.568 4.92.568 8.516 0 16.983-5.307 16.983-13.347zm-21.605 11.52a1.653 1.653 0 00-1.552.43c-2.588 2.545-6.814 3.123-8.815 3.252.914-1.262 2.4-3.578 3.096-6.131a1.658 1.658 0 00-.437-1.624c-2.198-2.143-3.36-4.719-3.36-7.447 0-6.646 7.038-12.053 15.69-12.053s15.689 5.407 15.689 12.053c0 6.646-7.038 12.053-15.689 12.053-1.574 0-3.129-.18-4.622-.533z"/><path d="M39.529 24.743c3.77-1.905 6.022-5.153 6.022-8.687 0-4.995-4.515-9.263-10.737-10.149a.646.646 0 10-.182 1.28c5.577.794 9.625 4.524 9.625 8.868 0 3.036-1.986 5.852-5.311 7.533a1.599 1.599 0 00-.843 1.757c.315 1.482.987 2.854 1.524 3.784-3.819-.636-5.267-2.468-5.724-3.261a1.595 1.595 0 00-1.381-.793h-.052c-.717 0-1.435-.05-2.134-.148a.646.646 0 10-.18 1.28c.758.107 1.537.161 2.314.161h.053a.3.3 0 01.26.146c1.751 3.035 5.778 3.81 7.427 4.003.364.042.712-.124.906-.436s.192-.695-.006-1.004c-.497-.774-1.384-2.323-1.741-4.002a.305.305 0 01.161-.334zM8.324 11.685c-1.236 0-2.241 1.005-2.241 2.241s1.005 2.241 2.241 2.241c1.236 0 2.241-1.005 2.241-2.241s-1.005-2.241-2.241-2.241zm0 3.189a.949.949 0 11.001-1.897.949.949 0 01-.001 1.897zM14.718 11.685c-1.236 0-2.241 1.005-2.241 2.241s1.005 2.241 2.241 2.241c1.236 0 2.241-1.005 2.241-2.241s-1.005-2.241-2.241-2.241zm0 3.189a.949.949 0 11.001-1.897.949.949 0 01-.001 1.897zM21.111 11.685c-1.236 0-2.241 1.005-2.241 2.241s1.005 2.241 2.241 2.241c1.236 0 2.241-1.005 2.241-2.241s-1.006-2.241-2.241-2.241zm0 3.189a.949.949 0 11.001-1.897.949.949 0 01-.001 1.897zM27.505 11.685c-1.236 0-2.241 1.005-2.241 2.241s1.006 2.241 2.241 2.241c1.236 0 2.241-1.005 2.241-2.241s-1.005-2.241-2.241-2.241zm0 3.189a.949.949 0 11.001-1.897.949.949 0 01-.001 1.897z"/></symbol><symbol id="icon-twitter-desktop" viewBox="0 0 40 32"><path d="M40.421 3.788a17.658 17.658 0 01-4.775 1.275c1.718-.999 3.029-2.57 3.645-4.463a16.82 16.82 0 01-5.255 1.954 8.406 8.406 0 00-6.053-2.555c-4.588 0-8.281 3.628-8.281 8.076 0 .64.056 1.255.192 1.841-6.889-.327-12.985-3.545-17.08-8.446A7.97 7.97 0 001.68 5.551c0 2.796 1.478 5.275 3.681 6.71a8.36 8.36 0 01-3.744-.994v.089c0 3.924 2.872 7.183 6.639 7.934-.675.18-1.41.266-2.173.266-.531 0-1.066-.029-1.569-.138 1.074 3.197 4.12 5.548 7.743 5.625a16.93 16.93 0 01-10.275 3.444c-.68 0-1.331-.03-1.983-.111 3.671 2.307 8.021 3.623 12.712 3.623 15.249 0 23.586-12.308 23.586-22.976 0-.357-.013-.702-.03-1.044a16.29 16.29 0 004.153-4.192z"/></symbol><symbol id="icon-twitter-tablet_mobile" viewBox="0 0 41 32"><path d="M40.421 3.788a17.658 17.658 0 01-4.775 1.275c1.718-.999 3.029-2.57 3.645-4.463a16.82 16.82 0 01-5.255 1.954 8.408 8.408 0 00-6.053-2.555c-4.588 0-8.281 3.628-8.281 8.076 0 .64.056 1.255.192 1.841-6.889-.327-12.985-3.545-17.08-8.446A7.97 7.97 0 001.68 5.551c0 2.796 1.478 5.275 3.681 6.71a8.36 8.36 0 01-3.744-.994v.089c0 3.924 2.872 7.183 6.639 7.934-.675.18-1.41.266-2.173.266-.531 0-1.066-.03-1.569-.138 1.074 3.197 4.12 5.548 7.743 5.625a16.93 16.93 0 01-10.275 3.444c-.68 0-1.331-.03-1.983-.111 3.671 2.307 8.021 3.623 12.712 3.623 15.249 0 23.586-12.308 23.586-22.976 0-.357-.013-.702-.03-1.044a16.29 16.29 0 004.153-4.192z"/></symbol></defs></svg>